<?xml version="1.0" encoding="UTF-8" standalone="no"?><!-- Generator: Gravit.io --><svg xmlns="http://www.w3.org/2000/svg" xmlns:xlink="http://www.w3.org/1999/xlink" style="isolation:isolate" viewBox="0 0 1440 900" width="1440pt" height="900pt"><defs><clipPath id="_clipPath_EPe8GO0Y3oovizvHZV6TwqGe2g38bY6G"><rect width="1440" height="900"/></clipPath></defs><g clip-path="url(#_clipPath_EPe8GO0Y3oovizvHZV6TwqGe2g38bY6G)"><rect x="560" y="-223.241" width="908" height="977.241" transform="matrix(-1,0,0,-1,2028,530.759)" fill="rgb(102,143,255)"/><path d=" M -98 192.5 C -98 493.018 117.753 737 383.5 737 C 649.247 737 865 493.018 865 192.5 C 865 -108.018 649.247 -352 383.5 -352 C 117.753 -352 -98 -108.018 -98 192.5 Z " fill="rgb(102,143,255)"/><path d=" M 328 931 C 328 1101.542 635.61 1240 1014.5 1240 C 1393.39 1240 1701 1101.542 1701 931 C 1701 760.458 1393.39 622 1014.5 622 C 635.61 622 328 760.458 328 931 Z " fill="rgb(255,255,255)"/></g></svg>