<?xml version="1.0" encoding="UTF-8" standalone="no"?><!-- Generator: Gravit.io --><svg xmlns="http://www.w3.org/2000/svg" xmlns:xlink="http://www.w3.org/1999/xlink" style="isolation:isolate" viewBox="0 0 1440 900" width="1440pt" height="900pt"><defs><clipPath id="_clipPath_bxAjoxpXyLolWN5rdA1IIlAB2BqMq3T6"><rect width="1440" height="900"/></clipPath></defs><g clip-path="url(#_clipPath_bxAjoxpXyLolWN5rdA1IIlAB2BqMq3T6)"><defs><filter id="rTXchNJHCvLDmR6aHikZ2FEAioiOkdvV" x="-200%" y="-200%" width="400%" height="400%" filterUnits="objectBoundingBox" color-interpolation-filters="sRGB"><feGaussianBlur xmlns="http://www.w3.org/2000/svg" stdDeviation="0"/></filter></defs><g filter="url(#rTXchNJHCvLDmR6aHikZ2FEAioiOkdvV)"><path d=" M -265.506 552.307 C -265.21 414.813 -146.001 303.441 0.535 303.755 C 147.072 304.07 265.801 415.954 265.506 553.448 C 265.21 690.942 146.001 802.314 -0.535 801.999 C -147.072 801.684 -265.801 689.801 -265.506 552.307 Z " fill="rgb(0,132,255)"/></g><defs><filter id="lFYIt5fu6cVv4CPsoOfQOiruXrFYxPS4" x="-200%" y="-200%" width="400%" height="400%" filterUnits="objectBoundingBox" color-interpolation-filters="sRGB"><feGaussianBlur xmlns="http://www.w3.org/2000/svg" stdDeviation="0"/></filter></defs><g filter="url(#lFYIt5fu6cVv4CPsoOfQOiruXrFYxPS4)"><path d=" M 1256.988 340.352 C 1257.283 202.858 1376.492 91.485 1523.029 91.8 C 1669.566 92.115 1788.295 203.999 1787.999 341.493 C 1787.704 478.987 1668.495 590.359 1521.958 590.044 C 1375.422 589.729 1256.692 477.846 1256.988 340.352 Z " fill="rgb(0,179,255)"/></g><defs><filter id="N7wMTfshg6huTcKFmK1AqoJ09OFrV3sL" x="-200%" y="-200%" width="400%" height="400%" filterUnits="objectBoundingBox" color-interpolation-filters="sRGB"><feGaussianBlur xmlns="http://www.w3.org/2000/svg" stdDeviation="0"/></filter></defs><g opacity="0.56" filter="url(#N7wMTfshg6huTcKFmK1AqoJ09OFrV3sL)"><path d=" M 209 126.2 C 209.096 81.699 244.349 45.645 287.676 45.738 C 331.003 45.831 366.101 82.036 366.005 126.538 C 365.91 171.039 330.656 207.093 287.329 207 C 244.003 206.907 208.905 170.702 209 126.2 Z " fill="rgb(0,102,255)"/></g><defs><filter id="ZChYdXsZC9QfrqX5q4Opf3rqXHWJN7j7" x="-200%" y="-200%" width="400%" height="400%" filterUnits="objectBoundingBox" color-interpolation-filters="sRGB"><feGaussianBlur xmlns="http://www.w3.org/2000/svg" stdDeviation="0" result="_out_vZLCpg5YXZ8kReeELraecSrw6Q3DcX59"/><feGaussianBlur xmlns="http://www.w3.org/2000/svg" stdDeviation="0" in="_out_vZLCpg5YXZ8kReeELraecSrw6Q3DcX59"/></filter></defs><g opacity="0.56" filter="url(#ZChYdXsZC9QfrqX5q4Opf3rqXHWJN7j7)"><path d=" M 464 589.918 C 464.072 556.371 490.647 529.193 523.309 529.263 C 555.97 529.333 582.428 556.626 582.356 590.172 C 582.284 623.719 555.708 650.897 523.047 650.827 C 490.386 650.757 463.928 623.464 464 589.918 Z " fill="rgb(0,132,255)"/></g><defs><filter id="WpJZbHzFb0nPejxZC6AbJbxqQLHhJy4w" x="-200%" y="-200%" width="400%" height="400%" filterUnits="objectBoundingBox" color-interpolation-filters="sRGB"><feGaussianBlur xmlns="http://www.w3.org/2000/svg" stdDeviation="0"/></filter></defs><g opacity="0.56" filter="url(#WpJZbHzFb0nPejxZC6AbJbxqQLHhJy4w)"><path d=" M 1130.365 70.566 C 1130.418 45.918 1149.944 25.949 1173.941 26 C 1197.939 26.052 1217.379 46.105 1217.326 70.753 C 1217.273 95.401 1197.747 115.371 1173.749 115.319 C 1149.752 115.268 1130.312 95.214 1130.365 70.566 Z " fill="rgb(0,157,255)"/></g><defs><filter id="GfE0mITjvXtAsqu0jss7XQNgW0pMkXCr" x="-200%" y="-200%" width="400%" height="400%" filterUnits="objectBoundingBox" color-interpolation-filters="sRGB"><feGaussianBlur xmlns="http://www.w3.org/2000/svg" stdDeviation="0"/></filter></defs><g opacity="0.56" filter="url(#GfE0mITjvXtAsqu0jss7XQNgW0pMkXCr)"><path d=" M 908 686.764 C 908.178 604.02 973.727 536.983 1054.287 537.156 C 1134.847 537.33 1200.107 604.648 1199.929 687.392 C 1199.751 770.136 1134.203 837.173 1053.643 837 C 973.083 836.827 907.823 769.508 908 686.764 Z " fill="rgb(0,13,255)"/></g></g></svg>