<?xml version="1.0" encoding="UTF-8" standalone="no"?><!-- Generator: Gravit.io --><svg xmlns="http://www.w3.org/2000/svg" xmlns:xlink="http://www.w3.org/1999/xlink" style="isolation:isolate" viewBox="0 0 1440 900" width="1440pt" height="900pt"><defs><clipPath id="_clipPath_dUWWH6WHa2JzKvaUKKNgvnvgtVflnPKK"><rect width="1440" height="900"/></clipPath></defs><g clip-path="url(#_clipPath_dUWWH6WHa2JzKvaUKKNgvnvgtVflnPKK)"><defs><filter id="7wjp5nNwf0FuKsQvuNVqK0R7ajDTcw0N" x="-200%" y="-200%" width="400%" height="400%" filterUnits="objectBoundingBox" color-interpolation-filters="sRGB"><feGaussianBlur xmlns="http://www.w3.org/2000/svg" stdDeviation="0"/></filter></defs><g filter="url(#7wjp5nNwf0FuKsQvuNVqK0R7ajDTcw0N)"><path d=" M -265.506 567.307 C -265.21 429.813 -146.001 318.441 0.535 318.755 C 147.072 319.07 265.801 430.954 265.506 568.448 C 265.21 705.942 146.001 817.314 -0.535 816.999 C -147.072 816.684 -265.801 704.801 -265.506 567.307 Z " fill="rgb(0,132,255)"/></g><defs><filter id="uBfIbGg1q4bhcMVJZStpZ2Kq9Ag19hle" x="-200%" y="-200%" width="400%" height="400%" filterUnits="objectBoundingBox" color-interpolation-filters="sRGB"><feGaussianBlur xmlns="http://www.w3.org/2000/svg" stdDeviation="0"/></filter></defs><g filter="url(#uBfIbGg1q4bhcMVJZStpZ2Kq9Ag19hle)"><path d=" M 1256.988 340.352 C 1257.283 202.858 1376.492 91.485 1523.029 91.8 C 1669.566 92.115 1788.295 203.999 1787.999 341.493 C 1787.704 478.987 1668.495 590.359 1521.958 590.044 C 1375.422 589.729 1256.692 477.846 1256.988 340.352 Z " fill="rgb(0,179,255)"/></g><defs><filter id="DdGbPNvbnPQnsJcEiwXzpo9koe5mxaXK" x="-200%" y="-200%" width="400%" height="400%" filterUnits="objectBoundingBox" color-interpolation-filters="sRGB"><feGaussianBlur xmlns="http://www.w3.org/2000/svg" stdDeviation="0"/></filter></defs><g opacity="0.56" filter="url(#DdGbPNvbnPQnsJcEiwXzpo9koe5mxaXK)"><path d=" M 209 126.2 C 209.096 81.699 244.349 45.645 287.676 45.738 C 331.003 45.831 366.101 82.036 366.005 126.538 C 365.91 171.039 330.656 207.093 287.329 207 C 244.003 206.907 208.905 170.702 209 126.2 Z " fill="rgb(0,102,255)"/></g><defs><filter id="ndWyn7upd2N14kg5NdlkhZRTTNrDgHmi" x="-200%" y="-200%" width="400%" height="400%" filterUnits="objectBoundingBox" color-interpolation-filters="sRGB"><feGaussianBlur xmlns="http://www.w3.org/2000/svg" stdDeviation="0" result="_out_EBQjwOlBgBh64pUmkEI8RmxKFAPNV85e"/><feGaussianBlur xmlns="http://www.w3.org/2000/svg" stdDeviation="0" in="_out_EBQjwOlBgBh64pUmkEI8RmxKFAPNV85e"/></filter></defs><g opacity="0.56" filter="url(#ndWyn7upd2N14kg5NdlkhZRTTNrDgHmi)"><path d=" M 464 589.918 C 464.072 556.371 490.647 529.193 523.309 529.263 C 555.97 529.333 582.428 556.626 582.356 590.172 C 582.284 623.719 555.708 650.897 523.047 650.827 C 490.386 650.757 463.928 623.464 464 589.918 Z " fill="rgb(0,132,255)"/></g><defs><filter id="47y8HQu8nZBZDtW5bxTarJn9trUe5i7W" x="-200%" y="-200%" width="400%" height="400%" filterUnits="objectBoundingBox" color-interpolation-filters="sRGB"><feGaussianBlur xmlns="http://www.w3.org/2000/svg" stdDeviation="0"/></filter></defs><g opacity="0.56" filter="url(#47y8HQu8nZBZDtW5bxTarJn9trUe5i7W)"><path d=" M 1130.365 70.566 C 1130.418 45.918 1149.944 25.949 1173.941 26 C 1197.939 26.052 1217.379 46.105 1217.326 70.753 C 1217.273 95.401 1197.747 115.371 1173.749 115.319 C 1149.752 115.268 1130.312 95.214 1130.365 70.566 Z " fill="rgb(0,157,255)"/></g><defs><filter id="BohDK77wQ8czaCQq1kM1L9EysVXSfJz2" x="-200%" y="-200%" width="400%" height="400%" filterUnits="objectBoundingBox" color-interpolation-filters="sRGB"><feGaussianBlur xmlns="http://www.w3.org/2000/svg" stdDeviation="0"/></filter></defs><g opacity="0.56" filter="url(#BohDK77wQ8czaCQq1kM1L9EysVXSfJz2)"><path d=" M 920.618 634.339 C 920.783 557.418 981.718 495.1 1056.608 495.261 C 1131.498 495.422 1192.165 558.002 1192 634.922 C 1191.834 711.842 1130.899 774.161 1056.009 774 C 981.119 773.839 920.453 711.259 920.618 634.339 Z " fill="rgb(0,13,255)"/></g></g></svg>