<?xml version="1.0" encoding="UTF-8" standalone="no"?><!-- Generator: Gravit.io --><svg xmlns="http://www.w3.org/2000/svg" xmlns:xlink="http://www.w3.org/1999/xlink" style="isolation:isolate" viewBox="0 0 1440 900" width="1440pt" height="900pt"><defs><clipPath id="_clipPath_odGUT6V5JhW0XuFmjS5zlybSwxwFgWOa"><rect width="1440" height="900"/></clipPath></defs><g clip-path="url(#_clipPath_odGUT6V5JhW0XuFmjS5zlybSwxwFgWOa)"><rect x="546" y="-105.241" width="908" height="977.241" transform="matrix(-1,0,0,-1,2000,766.759)" fill="rgb(0,85,255)"/><path d=" M -112 310.5 C -112 611.018 103.753 855 369.5 855 C 635.247 855 851 611.018 851 310.5 C 851 9.982 635.247 -234 369.5 -234 C 103.753 -234 -112 9.982 -112 310.5 Z " fill="rgb(0,85,255)"/><path d=" M 314 1049 C 314 1219.542 621.61 1358 1000.5 1358 C 1379.39 1358 1687 1219.542 1687 1049 C 1687 878.458 1379.39 740 1000.5 740 C 621.61 740 314 878.458 314 1049 Z " fill="rgb(255,255,255)"/></g></svg>