<?xml version="1.0" encoding="UTF-8" standalone="no"?><!-- Generator: Gravit.io --><svg xmlns="http://www.w3.org/2000/svg" xmlns:xlink="http://www.w3.org/1999/xlink" style="isolation:isolate" viewBox="0 0 1440 900" width="1440pt" height="900pt"><defs><clipPath id="_clipPath_APAG9E7Lb07mLjjCxJLdcMqO5dI9bPgV"><rect width="1440" height="900"/></clipPath></defs><g clip-path="url(#_clipPath_APAG9E7Lb07mLjjCxJLdcMqO5dI9bPgV)"><defs><filter id="YpDbPJqn4YD5F9j2bEWBKGsxRa6QQzp8" x="-200%" y="-200%" width="400%" height="400%" filterUnits="objectBoundingBox" color-interpolation-filters="sRGB"><feGaussianBlur xmlns="http://www.w3.org/2000/svg" stdDeviation="0"/></filter></defs><g filter="url(#YpDbPJqn4YD5F9j2bEWBKGsxRa6QQzp8)"><path d=" M -265.506 650.257 C -265.21 512.762 -146.001 401.39 0.535 401.705 C 147.072 402.02 265.801 513.904 265.506 651.398 C 265.21 788.892 146.001 900.264 -0.535 899.949 C -147.072 899.634 -265.801 787.751 -265.506 650.257 Z " fill="rgb(0,132,255)"/></g><defs><filter id="TxLto9g814DCX5cGz5R21lsQ37EkVCMQ" x="-200%" y="-200%" width="400%" height="400%" filterUnits="objectBoundingBox" color-interpolation-filters="sRGB"><feGaussianBlur xmlns="http://www.w3.org/2000/svg" stdDeviation="0"/></filter></defs><g filter="url(#TxLto9g814DCX5cGz5R21lsQ37EkVCMQ)"><path d=" M 1246.988 241.307 C 1247.283 103.813 1366.492 -7.559 1513.029 -7.245 C 1659.566 -6.93 1778.295 104.954 1777.999 242.448 C 1777.704 379.942 1658.495 491.314 1511.958 490.999 C 1365.422 490.684 1246.692 378.801 1246.988 241.307 Z " fill="rgb(0,179,255)"/></g><defs><filter id="PZNaxy0uOSHK5XlQyUzfWlby96lBLAgt" x="-200%" y="-200%" width="400%" height="400%" filterUnits="objectBoundingBox" color-interpolation-filters="sRGB"><feGaussianBlur xmlns="http://www.w3.org/2000/svg" stdDeviation="0"/></filter></defs><g opacity="0.56" filter="url(#PZNaxy0uOSHK5XlQyUzfWlby96lBLAgt)"><path d=" M 209 126.2 C 209.096 81.699 244.349 45.645 287.676 45.738 C 331.003 45.831 366.101 82.036 366.005 126.538 C 365.91 171.039 330.656 207.093 287.329 207 C 244.003 206.907 208.905 170.702 209 126.2 Z " fill="rgb(0,102,255)"/></g><defs><filter id="eVhlQVq3BMAYs6IuJbNp0D1tsnUarJkO" x="-200%" y="-200%" width="400%" height="400%" filterUnits="objectBoundingBox" color-interpolation-filters="sRGB"><feGaussianBlur xmlns="http://www.w3.org/2000/svg" stdDeviation="0" result="_out_Oe2TmgCbfKqwUjTx5kPiG9mrPN1esveC"/><feGaussianBlur xmlns="http://www.w3.org/2000/svg" stdDeviation="0" in="_out_Oe2TmgCbfKqwUjTx5kPiG9mrPN1esveC"/></filter></defs><g opacity="0.56" filter="url(#eVhlQVq3BMAYs6IuJbNp0D1tsnUarJkO)"><path d=" M 464 589.918 C 464.072 556.371 490.647 529.193 523.309 529.263 C 555.97 529.333 582.428 556.626 582.356 590.172 C 582.284 623.719 555.708 650.897 523.047 650.827 C 490.386 650.757 463.928 623.464 464 589.918 Z " fill="rgb(0,132,255)"/></g><defs><filter id="MxvJY2xNDniVNcp6ooF3JxJVfv79bU99" x="-200%" y="-200%" width="400%" height="400%" filterUnits="objectBoundingBox" color-interpolation-filters="sRGB"><feGaussianBlur xmlns="http://www.w3.org/2000/svg" stdDeviation="0"/></filter></defs><g opacity="0.56" filter="url(#MxvJY2xNDniVNcp6ooF3JxJVfv79bU99)"><path d=" M 1130.365 70.566 C 1130.418 45.918 1149.944 25.949 1173.941 26 C 1197.939 26.052 1217.379 46.105 1217.326 70.753 C 1217.273 95.401 1197.747 115.371 1173.749 115.319 C 1149.752 115.268 1130.312 95.214 1130.365 70.566 Z " fill="rgb(0,157,255)"/></g><defs><filter id="XmzbPxfyYkZKylXA8dgQhCSWF7SGo7Za" x="-200%" y="-200%" width="400%" height="400%" filterUnits="objectBoundingBox" color-interpolation-filters="sRGB"><feGaussianBlur xmlns="http://www.w3.org/2000/svg" stdDeviation="0"/></filter></defs><g opacity="0.56" filter="url(#XmzbPxfyYkZKylXA8dgQhCSWF7SGo7Za)"><path d=" M 908 686.764 C 908.178 604.02 973.727 536.983 1054.287 537.156 C 1134.847 537.33 1200.107 604.648 1199.929 687.392 C 1199.751 770.136 1134.203 837.173 1053.643 837 C 973.083 836.827 907.823 769.508 908 686.764 Z " fill="rgb(0,13,255)"/></g></g></svg>