<?xml version="1.0" encoding="UTF-8" standalone="no"?><!-- Generator: Gravit.io --><svg xmlns="http://www.w3.org/2000/svg" xmlns:xlink="http://www.w3.org/1999/xlink" style="isolation:isolate" viewBox="0 0 800 800" width="800pt" height="800pt"><defs><clipPath id="_clipPath_EJ2p1cZc84BjZmA7kr7gM7bGE3QdSx6t"><rect width="800" height="800"/></clipPath></defs><g clip-path="url(#_clipPath_EJ2p1cZc84BjZmA7kr7gM7bGE3QdSx6t)"><defs><filter id="Bp0dMM9Jv9iMTHpZ1yY1gBT5CpFEJ1wR" x="-200%" y="-200%" width="400%" height="400%" filterUnits="objectBoundingBox" color-interpolation-filters="sRGB"><feGaussianBlur xmlns="http://www.w3.org/2000/svg" in="SourceGraphic" stdDeviation="2.146804531419514"/><feOffset xmlns="http://www.w3.org/2000/svg" dx="0" dy="0" result="pf_100_offsetBlur"/><feFlood xmlns="http://www.w3.org/2000/svg" flood-color="#000000" flood-opacity="0.65"/><feComposite xmlns="http://www.w3.org/2000/svg" in2="pf_100_offsetBlur" operator="in" result="pf_100_dropShadow"/><feBlend xmlns="http://www.w3.org/2000/svg" in="SourceGraphic" in2="pf_100_dropShadow" mode="normal"/><feGaussianBlur xmlns="http://www.w3.org/2000/svg" stdDeviation="0"/></filter></defs><g filter="url(#Bp0dMM9Jv9iMTHpZ1yY1gBT5CpFEJ1wR)"><linearGradient id="_lgradient_0" x1="0" y1="0.5" x2="1" y2="0.5" gradientTransform="matrix(1290.303,0,0,1319.257,-212.76,-202.285)" gradientUnits="userSpaceOnUse"><stop offset="48.69565217391305%" stop-opacity="1" style="stop-color:rgb(0,68,255)"/><stop offset="98.69565217391305%" stop-opacity="1" style="stop-color:rgb(0,234,255)"/><stop offset="100%" stop-opacity="1" style="stop-color:rgb(0,0,0)"/></linearGradient><rect x="-212.76" y="-202.285" width="1290.303" height="1319.257" transform="matrix(0.809,0.588,-0.588,0.809,351.51,-166.823)" fill="url(#_lgradient_0)"/></g><text transform="matrix(1,0,0,1,207.975,562)" style="font-family:'Bungee';font-weight:400;font-size:450px;font-style:normal;fill:#ffffff;stroke:none;">M</text><text transform="matrix(1,0,0,1,-274,-259.23)" style="font-family:'Open Sans';font-weight:400;font-size:200px;font-style:normal;fill:#000000;stroke:none;">M</text><defs><filter id="mICB1jL0ItF54enfHr5L2pPbnUlh3Xjm" x="-200%" y="-200%" width="400%" height="400%" filterUnits="objectBoundingBox" color-interpolation-filters="sRGB"><feGaussianBlur xmlns="http://www.w3.org/2000/svg" stdDeviation="10.34759784144206"/></filter></defs><g filter="url(#mICB1jL0ItF54enfHr5L2pPbnUlh3Xjm)"><path d="M 46.02 165.405 L 150.951 76.99 C 161.704 67.929 177.79 69.304 186.85 80.056 L 200.26 95.972 C 209.321 106.724 207.946 122.81 197.194 131.87 L 92.262 220.286 C 81.51 229.346 65.424 227.972 56.364 217.219 L 42.953 201.304 C 33.893 190.551 35.267 174.465 46.02 165.405 Z" style="stroke:none;fill:#00C3FF;stroke-miterlimit:10;"/></g></g></svg>